<svg width="45" height="45" viewBox="0 0 45 45" fill="none" xmlns="http://www.w3.org/2000/svg">
<path d="M42.1875 17.9297C42.1875 30.2344 23.9432 40.1941 23.1662 40.6055C22.9614 40.7156 22.7325 40.7733 22.5 40.7733C22.2675 40.7733 22.0386 40.7156 21.8338 40.6055C21.0568 40.1941 2.8125 30.2344 2.8125 17.9297C2.81576 15.0402 3.96503 12.2701 6.00818 10.2269C8.05132 8.18378 10.8215 7.03451 13.7109 7.03125C17.3408 7.03125 20.5189 8.59219 22.5 11.2307C24.4811 8.59219 27.6592 7.03125 31.2891 7.03125C34.1785 7.03451 36.9487 8.18378 38.9918 10.2269C41.035 12.2701 42.1842 15.0402 42.1875 17.9297Z" fill="#B18165"/>
</svg>
